<svg id="Layer_1" enable-background="new 0 0 480 480" height="512" viewBox="0 0 480 480" width="512" xmlns="http://www.w3.org/2000/svg"><path d="m440 166.363h-400c-22.06 0-40 17.94-40 40v216c0 22.06 17.94 40 40 40h400c22.06 0 40-17.94 40-40v-216c0-22.059-17.94-40-40-40zm-129 60h18c4.418 0 8 3.582 8 8s-3.582 8-8 8h-18c-4.418 0-8-3.582-8-8s3.582-8 8-8zm0 80h18c4.418 0 8 3.582 8 8s-3.582 8-8 8h-18c-4.418 0-8-3.582-8-8s3.582-8 8-8zm-80-80h18c4.418 0 8 3.582 8 8s-3.582 8-8 8h-18c-4.418 0-8-3.582-8-8s3.582-8 8-8zm0 80h18c4.418 0 8 3.582 8 8s-3.582 8-8 8h-18c-4.418 0-8-3.582-8-8s3.582-8 8-8zm-80-80h18c4.418 0 8 3.582 8 8s-3.582 8-8 8h-18c-4.418 0-8-3.582-8-8s3.582-8 8-8zm0 80h18c4.418 0 8 3.582 8 8s-3.582 8-8 8h-18c-4.418 0-8-3.582-8-8s3.582-8 8-8zm-62 96h-18c-4.418 0-8-3.582-8-8s3.582-8 8-8h18c4.418 0 8 3.582 8 8s-3.582 8-8 8zm0-80h-18c-4.418 0-8-3.582-8-8s3.582-8 8-8h18c4.418 0 8 3.582 8 8s-3.582 8-8 8zm0-80h-18c-4.418 0-8-3.582-8-8s3.582-8 8-8h18c4.418 0 8 3.582 8 8s-3.582 8-8 8zm253 160h-204c-4.418 0-8-3.582-8-8s3.582-8 8-8h204c4.418 0 8 3.582 8 8s-3.582 8-8 8zm67 0h-18c-4.418 0-8-3.582-8-8s3.582-8 8-8h18c4.418 0 8 3.582 8 8s-3.582 8-8 8zm0-80h-18c-4.418 0-8-3.582-8-8s3.582-8 8-8h18c4.418 0 8 3.582 8 8s-3.582 8-8 8zm0-80h-18c-4.418 0-8-3.582-8-8s3.582-8 8-8h18c4.418 0 8 3.582 8 8s-3.582 8-8 8zm-168.66-115.71c-13.276 0-20.073-16.161-10.6-25.6 5.884-5.884 15.354-5.857 21.21 0 9.463 9.463 2.659 25.6-10.61 25.6zm25.46-40.451c-14.069-14.069-36.839-14.071-50.911.001-3.125 3.123-8.189 3.123-11.314 0-3.124-3.125-3.124-8.189 0-11.314 20.324-20.322 53.216-20.325 73.54.001 3.124 3.124 3.124 8.189-.001 11.313-3.124 3.124-8.189 3.124-11.314-.001zm29.698-29.697c-30.48-30.484-79.823-30.489-110.308 0-3.125 3.123-8.189 3.123-11.314 0-3.124-3.124-3.124-8.189 0-11.314 36.74-36.738 96.195-36.739 132.937 0 3.124 3.125 3.124 8.19 0 11.314-3.127 3.124-8.19 3.123-11.315 0z"/></svg>